<svg xmlns="http://www.w3.org/2000/svg" width="933.333" fill="rgb(51 65 85)" height="933.333" viewBox="0 0 700 700" ><path d="M210.11 168.44h54.797c3.609 0 6.563-2.953 6.563-6.562s-2.953-6.562-6.562-6.562H210.11c-3.609 0-6.562 2.953-6.562 6.563s2.953 6.563 6.563 6.563zm218.2 77.33c3.609 0 6.563-2.953 6.563-6.562s-2.953-6.562-6.562-6.562h-81.594c-3.609 0-6.562 2.953-6.562 6.563s2.953 6.563 6.563 6.563zm-134.97-13.13c-3.609 0-6.562 2.953-6.562 6.563s2.953 6.563 6.563 6.563h25.594c3.609 0 6.563-2.953 6.563-6.562s-2.953-6.562-6.562-6.562zm-83.23 13.13h55.016c3.609 0 6.563-2.953 6.563-6.562s-2.953-6.562-6.562-6.562H210.11c-3.609 0-6.562 2.953-6.562 6.563s2.953 6.563 6.563 6.563zm115.17 64.09H210.11c-3.609 0-6.562 2.953-6.562 6.563s2.953 6.563 6.563 6.563h115.17c3.609 0 6.563-2.953 6.563-6.562s-2.953-6.562-6.562-6.562zm87.28-141.42h15.75c3.609 0 6.563-2.953 6.563-6.562s-2.953-6.562-6.562-6.562h-15.75c-3.609 0-6.562 2.953-6.562 6.563s2.953 6.563 6.563 6.563zm-120.31 0h92.641c3.609 0 6.563-2.953 6.563-6.562s-2.953-6.562-6.562-6.562H292.25c-3.609 0-6.562 2.953-6.562 6.563s2.953 6.563 6.563 6.563zM611.62 470.2l-52.062-52.062c36.422-41.453 32.266-104.56-9.187-140.98a100.21 100.21 0 0 0-57.75-24.5v-65.844h75.578c3.609 0 6.563-2.953 6.563-6.562V93.19c0-26.25-21.328-47.578-47.578-47.578h-1.641-.766-316.31c-29.312.109-53.156 23.625-53.484 52.938l-2.406 291.7H92.968c-3.609 0-6.562 2.953-6.562 6.563v43.641c0 39.156 30.078 71.422 67.922 73.719.438.109.984.109 1.422.109h260.31c.328 0 .656 0 .984-.109.984 0 2.078.109 3.063.109 35.766 0 66.172-27.016 71.531-62.453 21.656-1.641 42.219-10.172 58.625-24.5l52.062 52.062c2.516 2.516 6.672 2.516 9.297 0 2.625-2.406 2.625-6.562 0-9.187zM527.292 58.95c18.922.109 34.234 15.422 34.344 34.344v80.5H492.62V93.185c.109-19.031 15.641-34.344 34.672-34.234zm-368.48 442.31c-32.703 0-59.281-27.234-59.281-60.812V403.37h248.17v37.078c-.109 24.172 11.594 46.812 31.281 60.812zm261.3 0c-32.703 0-59.281-27.234-59.281-60.812v-43.641c0-3.609-2.953-6.562-6.562-6.562h-188.56l2.406-291.59c.328-22.094 18.266-39.922 40.359-39.922h285.91a47.34 47.34 0 0 0-14.875 34.453v159.14c-38.938 1.969-73.172 26.25-87.719 62.344a6.54 6.54 0 0 0-6.344-4.922h-32.375c-3.609 0-6.562 2.953-6.562 6.563s2.953 6.563 6.563 6.563h32.375c1.422 0 2.734-.437 3.828-1.312-16.844 52.609 12.031 108.83 64.641 125.67 7.984 2.516 16.188 4.047 24.5 4.594-5.359 28.328-29.75 49.438-58.297 49.438zm64.312-62.234c-15.312 0-30.406-4.047-43.75-11.812-6.453-3.719-12.359-8.312-17.719-13.672-33.906-33.906-33.906-88.922 0-122.83s88.922-33.906 122.83 0c16.297 16.297 25.484 38.391 25.484 61.359 0 48.125-38.938 86.953-86.844 86.953z"/></svg>